<?xml version="1.0" standalone="no"?>
<svg xmlns:xlink="http://www.w3.org/1999/xlink" id="wave" style="transform:rotate(0deg); transition: 0.3s" viewBox="0 0 1440 160" version="1.1" xmlns="http://www.w3.org/2000/svg"><defs><linearGradient id="sw-gradient-0" x1="0" x2="0" y1="1" y2="0"><stop stop-color="rgba(0, 153, 0, 1)" offset="0%"/><stop stop-color="rgba(54, 89, 66, 1)" offset="100%"/></linearGradient></defs><path style="transform:translate(0, 0px); opacity:1" fill="url(#sw-gradient-0)" d="M0,0L48,10.7C96,21,192,43,288,56C384,69,480,75,576,74.7C672,75,768,69,864,74.7C960,80,1056,96,1152,106.7C1248,117,1344,123,1440,109.3C1536,96,1632,64,1728,53.3C1824,43,1920,53,2016,64C2112,75,2208,85,2304,90.7C2400,96,2496,96,2592,93.3C2688,91,2784,85,2880,90.7C2976,96,3072,112,3168,101.3C3264,91,3360,53,3456,53.3C3552,53,3648,91,3744,112C3840,133,3936,139,4032,117.3C4128,96,4224,48,4320,26.7C4416,5,4512,11,4608,34.7C4704,59,4800,101,4896,120C4992,139,5088,133,5184,112C5280,91,5376,53,5472,48C5568,43,5664,69,5760,85.3C5856,101,5952,107,6048,96C6144,85,6240,59,6336,61.3C6432,64,6528,96,6624,109.3C6720,123,6816,117,6864,114.7L6912,112L6912,160L6864,160C6816,160,6720,160,6624,160C6528,160,6432,160,6336,160C6240,160,6144,160,6048,160C5952,160,5856,160,5760,160C5664,160,5568,160,5472,160C5376,160,5280,160,5184,160C5088,160,4992,160,4896,160C4800,160,4704,160,4608,160C4512,160,4416,160,4320,160C4224,160,4128,160,4032,160C3936,160,3840,160,3744,160C3648,160,3552,160,3456,160C3360,160,3264,160,3168,160C3072,160,2976,160,2880,160C2784,160,2688,160,2592,160C2496,160,2400,160,2304,160C2208,160,2112,160,2016,160C1920,160,1824,160,1728,160C1632,160,1536,160,1440,160C1344,160,1248,160,1152,160C1056,160,960,160,864,160C768,160,672,160,576,160C480,160,384,160,288,160C192,160,96,160,48,160L0,160Z"/></svg>