<?xml version="1.0" standalone="no"?>
<svg xmlns:xlink="http://www.w3.org/1999/xlink" id="wave" style="transform:rotate(0deg); transition: 0.3s" viewBox="0 0 1440 140" version="1.1" xmlns="http://www.w3.org/2000/svg"><defs><linearGradient id="sw-gradient-0" x1="0" x2="0" y1="1" y2="0"><stop stop-color="rgba(0, 153, 0, 1)" offset="0%"/><stop stop-color="rgba(54, 89, 66, 1)" offset="100%"/></linearGradient></defs><path style="transform:translate(0, 0px); opacity:1" fill="url(#sw-gradient-0)" d="M0,14L40,30.3C80,47,160,79,240,93.3C320,107,400,103,480,84C560,65,640,33,720,18.7C800,5,880,9,960,16.3C1040,23,1120,33,1200,46.7C1280,61,1360,79,1440,86.3C1520,93,1600,89,1680,81.7C1760,75,1840,65,1920,65.3C2000,65,2080,75,2160,65.3C2240,56,2320,28,2400,16.3C2480,5,2560,9,2640,28C2720,47,2800,79,2880,77C2960,75,3040,37,3120,28C3200,19,3280,37,3360,37.3C3440,37,3520,19,3600,23.3C3680,28,3760,56,3840,70C3920,84,4000,84,4080,81.7C4160,79,4240,75,4320,65.3C4400,56,4480,42,4560,49C4640,56,4720,84,4800,93.3C4880,103,4960,93,5040,91C5120,89,5200,93,5280,100.3C5360,107,5440,117,5520,100.3C5600,84,5680,42,5720,21L5760,0L5760,140L5720,140C5680,140,5600,140,5520,140C5440,140,5360,140,5280,140C5200,140,5120,140,5040,140C4960,140,4880,140,4800,140C4720,140,4640,140,4560,140C4480,140,4400,140,4320,140C4240,140,4160,140,4080,140C4000,140,3920,140,3840,140C3760,140,3680,140,3600,140C3520,140,3440,140,3360,140C3280,140,3200,140,3120,140C3040,140,2960,140,2880,140C2800,140,2720,140,2640,140C2560,140,2480,140,2400,140C2320,140,2240,140,2160,140C2080,140,2000,140,1920,140C1840,140,1760,140,1680,140C1600,140,1520,140,1440,140C1360,140,1280,140,1200,140C1120,140,1040,140,960,140C880,140,800,140,720,140C640,140,560,140,480,140C400,140,320,140,240,140C160,140,80,140,40,140L0,140Z"/></svg>