<?xml version="1.0" standalone="no"?>
<svg xmlns:xlink="http://www.w3.org/1999/xlink" id="wave" style="transform:rotate(0deg); transition: 0.3s" viewBox="0 0 1440 140" version="1.1" xmlns="http://www.w3.org/2000/svg"><defs><linearGradient id="sw-gradient-0" x1="0" x2="0" y1="1" y2="0"><stop stop-color="rgba(0, 153, 0, 1)" offset="0%"/><stop stop-color="rgba(54, 89, 66, 1)" offset="100%"/></linearGradient></defs><path style="transform:translate(0, 0px); opacity:1" fill="url(#sw-gradient-0)" d="M0,112L40,95.7C80,79,160,47,240,46.7C320,47,400,79,480,98C560,117,640,121,720,121.3C800,121,880,117,960,98C1040,79,1120,47,1200,30.3C1280,14,1360,14,1440,23.3C1520,33,1600,51,1680,53.7C1760,56,1840,42,1920,42C2000,42,2080,56,2160,72.3C2240,89,2320,107,2400,107.3C2480,107,2560,89,2640,77C2720,65,2800,61,2880,65.3C2960,70,3040,84,3120,74.7C3200,65,3280,33,3360,21C3440,9,3520,19,3600,32.7C3680,47,3760,65,3840,67.7C3920,70,4000,56,4080,49C4160,42,4240,42,4320,37.3C4400,33,4480,23,4560,25.7C4640,28,4720,42,4800,56C4880,70,4960,84,5040,95.7C5120,107,5200,117,5280,121.3C5360,126,5440,126,5520,105C5600,84,5680,42,5720,21L5760,0L5760,140L5720,140C5680,140,5600,140,5520,140C5440,140,5360,140,5280,140C5200,140,5120,140,5040,140C4960,140,4880,140,4800,140C4720,140,4640,140,4560,140C4480,140,4400,140,4320,140C4240,140,4160,140,4080,140C4000,140,3920,140,3840,140C3760,140,3680,140,3600,140C3520,140,3440,140,3360,140C3280,140,3200,140,3120,140C3040,140,2960,140,2880,140C2800,140,2720,140,2640,140C2560,140,2480,140,2400,140C2320,140,2240,140,2160,140C2080,140,2000,140,1920,140C1840,140,1760,140,1680,140C1600,140,1520,140,1440,140C1360,140,1280,140,1200,140C1120,140,1040,140,960,140C880,140,800,140,720,140C640,140,560,140,480,140C400,140,320,140,240,140C160,140,80,140,40,140L0,140Z"/></svg>