<?xml version="1.0" standalone="no"?>
<svg xmlns:xlink="http://www.w3.org/1999/xlink" id="wave" style="transform:rotate(0deg); transition: 0.3s" viewBox="0 0 1440 100" version="1.1" xmlns="http://www.w3.org/2000/svg"><defs><linearGradient id="sw-gradient-0" x1="0" x2="0" y1="1" y2="0"><stop stop-color="rgba(0, 153, 0, 1)" offset="0%"/><stop stop-color="rgba(54, 89, 66, 1)" offset="100%"/></linearGradient></defs><path style="transform:translate(0, 0px); opacity:1" fill="url(#sw-gradient-0)" d="M0,80L40,68.3C80,57,160,33,240,33.3C320,33,400,57,480,70C560,83,640,87,720,86.7C800,87,880,83,960,70C1040,57,1120,33,1200,21.7C1280,10,1360,10,1440,16.7C1520,23,1600,37,1680,38.3C1760,40,1840,30,1920,30C2000,30,2080,40,2160,51.7C2240,63,2320,77,2400,76.7C2480,77,2560,63,2640,55C2720,47,2800,43,2880,46.7C2960,50,3040,60,3120,53.3C3200,47,3280,23,3360,15C3440,7,3520,13,3600,23.3C3680,33,3760,47,3840,48.3C3920,50,4000,40,4080,35C4160,30,4240,30,4320,26.7C4400,23,4480,17,4560,18.3C4640,20,4720,30,4800,40C4880,50,4960,60,5040,68.3C5120,77,5200,83,5280,86.7C5360,90,5440,90,5520,75C5600,60,5680,30,5720,15L5760,0L5760,100L5720,100C5680,100,5600,100,5520,100C5440,100,5360,100,5280,100C5200,100,5120,100,5040,100C4960,100,4880,100,4800,100C4720,100,4640,100,4560,100C4480,100,4400,100,4320,100C4240,100,4160,100,4080,100C4000,100,3920,100,3840,100C3760,100,3680,100,3600,100C3520,100,3440,100,3360,100C3280,100,3200,100,3120,100C3040,100,2960,100,2880,100C2800,100,2720,100,2640,100C2560,100,2480,100,2400,100C2320,100,2240,100,2160,100C2080,100,2000,100,1920,100C1840,100,1760,100,1680,100C1600,100,1520,100,1440,100C1360,100,1280,100,1200,100C1120,100,1040,100,960,100C880,100,800,100,720,100C640,100,560,100,480,100C400,100,320,100,240,100C160,100,80,100,40,100L0,100Z"/></svg>