<?xml version="1.0" standalone="no"?><svg xmlns="http://www.w3.org/2000/svg" viewBox="0 0 1440 320"><path fill="#009900" fill-opacity="1" d="M0,224L40,234.7C80,245,160,267,240,272C320,277,400,267,480,266.7C560,267,640,277,720,250.7C800,224,880,160,960,154.7C1040,149,1120,203,1200,202.7C1280,203,1360,149,1400,122.7L1440,96L1440,320L1400,320C1360,320,1280,320,1200,320C1120,320,1040,320,960,320C880,320,800,320,720,320C640,320,560,320,480,320C400,320,320,320,240,320C160,320,80,320,40,320L0,320Z"></path></svg>