<?xml version="1.0" standalone="no"?>
<svg xmlns:xlink="http://www.w3.org/1999/xlink" id="wave" style="transform:rotate(0deg); transition: 0.3s" viewBox="0 0 1440 260" version="1.1" xmlns="http://www.w3.org/2000/svg"><defs><linearGradient id="sw-gradient-0" x1="0" x2="0" y1="1" y2="0"><stop stop-color="rgba(0, 153, 0, 1)" offset="0%"/><stop stop-color="rgba(54, 89, 66, 1)" offset="100%"/></linearGradient></defs><path style="transform:translate(0, 0px); opacity:1" fill="url(#sw-gradient-0)" d="M0,0L48,17.3C96,35,192,69,288,91C384,113,480,121,576,121.3C672,121,768,113,864,121.3C960,130,1056,156,1152,173.3C1248,191,1344,199,1440,177.7C1536,156,1632,104,1728,86.7C1824,69,1920,87,2016,104C2112,121,2208,139,2304,147.3C2400,156,2496,156,2592,151.7C2688,147,2784,139,2880,147.3C2976,156,3072,182,3168,164.7C3264,147,3360,87,3456,86.7C3552,87,3648,147,3744,182C3840,217,3936,225,4032,190.7C4128,156,4224,78,4320,43.3C4416,9,4512,17,4608,56.3C4704,95,4800,165,4896,195C4992,225,5088,217,5184,182C5280,147,5376,87,5472,78C5568,69,5664,113,5760,138.7C5856,165,5952,173,6048,156C6144,139,6240,95,6336,99.7C6432,104,6528,156,6624,177.7C6720,199,6816,191,6864,186.3L6912,182L6912,260L6864,260C6816,260,6720,260,6624,260C6528,260,6432,260,6336,260C6240,260,6144,260,6048,260C5952,260,5856,260,5760,260C5664,260,5568,260,5472,260C5376,260,5280,260,5184,260C5088,260,4992,260,4896,260C4800,260,4704,260,4608,260C4512,260,4416,260,4320,260C4224,260,4128,260,4032,260C3936,260,3840,260,3744,260C3648,260,3552,260,3456,260C3360,260,3264,260,3168,260C3072,260,2976,260,2880,260C2784,260,2688,260,2592,260C2496,260,2400,260,2304,260C2208,260,2112,260,2016,260C1920,260,1824,260,1728,260C1632,260,1536,260,1440,260C1344,260,1248,260,1152,260C1056,260,960,260,864,260C768,260,672,260,576,260C480,260,384,260,288,260C192,260,96,260,48,260L0,260Z"/>
</svg>